<?xml version="1.0" standalone="no"?>
<!DOCTYPE svg PUBLIC "-//W3C//DTD SVG 20010904//EN"
 "http://www.w3.org/TR/2001/REC-SVG-20010904/DTD/svg10.dtd">
<svg version="1.0" xmlns="http://www.w3.org/2000/svg"
 width="574.000000pt" height="574.000000pt" viewBox="0 0 574.000000 574.000000"
 preserveAspectRatio="xMidYMid meet">
<metadata>
Created by potrace 1.11, written by Peter Selinger 2001-2013
</metadata>
<g transform="translate(0.000000,574.000000) scale(0.100000,-0.100000)"
fill="#000000" stroke="none">
<path d="M3377 5454 c-1 -1 -45 -4 -97 -8 -106 -7 -125 -9 -261 -36 -175 -36
-373 -108 -549 -202 -52 -28 -97 -54 -100 -58 -3 -3 -23 -17 -45 -30 -37 -23
-155 -110 -181 -135 -7 -5 -35 -30 -63 -55 l-52 -45 -865 0 c-942 0 -886 3
-883 -55 1 -14 0 -29 0 -35 -1 -5 -1 -102 -1 -215 1 -113 1 -216 0 -230 -1
-14 -1 -41 -1 -60 1 -19 1 -55 0 -80 -1 -25 -1 -52 0 -60 1 -8 1 -26 0 -40 0
-14 0 -41 0 -60 2 -68 0 -124 -5 -131 -2 -4 0 -10 6 -14 6 -4 8 -11 5 -16 -4
-5 -6 -114 -5 -242 1 -127 1 -243 0 -257 -1 -14 -1 -41 -1 -60 1 -19 1 -55 0
-80 -1 -25 -1 -52 0 -60 1 -8 1 -26 0 -40 0 -14 0 -41 0 -60 2 -62 0 -124 -4
-128 -2 -2 1 -17 5 -33 5 -16 6 -29 2 -29 -4 0 -6 -100 -4 -222 2 -123 3 -234
2 -248 -1 -14 -1 -41 -1 -60 1 -19 1 -55 0 -80 -1 -25 -1 -52 0 -60 1 -8 1
-26 0 -40 0 -14 0 -41 0 -60 2 -68 0 -124 -5 -131 -2 -4 0 -10 6 -14 6 -4 8
-11 5 -16 -4 -5 -6 -114 -5 -242 1 -127 1 -243 0 -257 -1 -14 -1 -41 -1 -60 1
-19 1 -55 0 -80 -1 -25 -1 -52 0 -60 1 -8 1 -26 0 -40 0 -14 0 -41 0 -60 2
-62 0 -124 -4 -128 -2 -2 1 -17 5 -33 5 -16 6 -29 2 -29 -8 0 -6 -443 1 -472
3 -10 1 -20 -3 -23 -5 -3 -7 -15 -4 -28 7 -34 7 -124 0 -135 -7 -12 19 -41 37
-43 7 -1 1033 -2 2281 -3 1869 -1 2272 1 2283 12 11 11 13 174 13 875 l0 862
28 30 c72 79 146 173 205 262 67 101 171 293 159 293 -4 0 -2 4 3 8 9 7 20 32
66 157 19 55 44 140 54 190 2 11 9 38 14 60 5 22 12 63 16 90 3 28 10 77 14
110 9 59 7 377 -2 445 -15 113 -17 124 -43 235 -3 11 -7 31 -10 44 -3 14 -7
28 -10 33 -3 4 -7 16 -9 25 -5 27 -44 144 -60 178 -26 59 -48 110 -49 115 -3
16 -100 186 -107 188 -5 2 -9 8 -9 13 0 6 -20 40 -45 76 -111 162 -266 327
-415 443 -25 19 -46 38 -48 42 -2 5 -9 8 -15 8 -7 1 -28 14 -47 30 -19 17 -38
30 -42 30 -4 0 -26 13 -50 29 -189 125 -504 238 -768 275 -80 12 -335 26 -343
20z m-1427 -653 c3 -1 0 -5 -5 -9 -29 -20 -215 -262 -215 -278 0 -3 -8 -18
-19 -32 -77 -110 -213 -431 -238 -564 -6 -37 -10 -54 -21 -108 -38 -188 -46
-483 -17 -659 3 -20 8 -49 10 -66 10 -65 62 -270 77 -298 5 -10 11 -27 13 -38
6 -29 85 -207 122 -272 18 -33 33 -61 33 -63 0 -9 104 -160 154 -224 97 -124
222 -251 326 -331 24 -19 50 -39 58 -46 7 -7 26 -20 42 -30 17 -9 30 -21 30
-25 0 -4 4 -8 10 -8 5 0 37 -18 71 -40 149 -96 399 -201 574 -240 200 -46 280
-54 480 -54 186 1 283 8 375 30 14 3 39 8 55 11 73 11 279 77 375 119 175 77
392 212 494 307 84 78 76 157 76 -733 0 -434 -3 -791 -7 -791 -5 -1 -1006 -2
-2226 -3 -1472 -1 -2217 2 -2217 9 -5 101 -3 335 2 335 4 0 5 6 2 14 -8 21
-10 146 -2 146 4 0 3 12 0 28 -4 15 -6 38 -5 52 4 51 4 70 3 337 -1 150 1 277
5 282 3 6 3 11 -2 11 -4 0 -8 20 -8 45 0 25 3 45 7 45 4 0 5 6 2 14 -9 23 -10
146 -1 146 5 0 5 4 2 10 -5 9 -9 279 -5 305 1 6 1 23 0 39 -6 85 -4 446 2 446
4 0 5 6 2 14 -8 21 -10 146 -2 146 4 0 3 12 0 28 -4 15 -6 38 -5 52 4 51 4 70
3 337 -1 150 1 277 5 282 3 6 3 11 -2 11 -4 0 -8 20 -8 45 0 25 3 45 7 45 4 0
5 6 2 14 -9 23 -10 146 -1 146 5 0 5 4 2 10 -5 9 -9 279 -5 305 1 6 1 23 0 39
-6 85 -4 446 2 446 4 0 5 6 2 14 -9 23 -10 146 -1 146 5 0 5 5 2 11 -11 16 -8
81 3 88 8 5 1564 7 1582 2z"/>
</g>
</svg>
