<svg version="1.1" viewBox="0.0 0.0 574.1286089238845 535.3832020997376" fill="none" stroke="none" stroke-linecap="square" stroke-miterlimit="10" xmlns:xlink="http://www.w3.org/1999/xlink" xmlns="http://www.w3.org/2000/svg"><clipPath id="p.0"><path d="m0 0l574.1286 0l0 535.3832l-574.1286 0l0 -535.3832z" clip-rule="nonzero"/></clipPath><g clip-path="url(#p.0)"><path fill="#000000" fill-opacity="0.0" d="m0 0l574.1286 0l0 535.3832l-574.1286 0z" fill-rule="evenodd"/><path fill="#000000" fill-opacity="0.0" d="m31.96588 69.591866l254.59692 0l0 0c52.671967 0 103.186646 20.923859 140.43137 58.16857c37.24469 37.244705 58.16855 87.75937 58.16855 140.43134l0 254.59692l-453.19684 0z" fill-rule="evenodd"/><path stroke="#b33412" stroke-width="8.0" stroke-linejoin="round" stroke-linecap="butt" d="m31.96588 69.591866l254.59692 0l0 0c52.671967 0 103.186646 20.923859 140.43137 58.16857c37.24469 37.244705 58.16855 87.75937 58.16855 140.43134l0 254.59692l-453.19684 0z" fill-rule="evenodd"/><path fill="#222222" d="m145.6273 210.89108l0 0c0 -109.51764 88.76747 -198.29922 198.26772 -198.29922l0 0c52.583862 0 103.01404 20.89218 140.19644 58.08049c37.182404 37.188316 58.07126 87.6265 58.07126 140.21872l0 0c0 109.51764 -88.767456 198.2992 -198.2677 198.2992l0 0c-109.500244 0 -198.26772 -88.781555 -198.26772 -198.2992z" fill-rule="evenodd"/><path stroke="#b33412" stroke-width="8.0" stroke-linejoin="round" stroke-linecap="butt" d="m145.6273 210.89108l0 0c0 -109.51764 88.76747 -198.29922 198.26772 -198.29922l0 0c52.583862 0 103.01404 20.89218 140.19644 58.08049c37.182404 37.188316 58.07126 87.6265 58.07126 140.21872l0 0c0 109.51764 -88.767456 198.2992 -198.2677 198.2992l0 0c-109.500244 0 -198.26772 -88.781555 -198.26772 -198.2992z" fill-rule="evenodd"/><path fill="#000000" fill-opacity="0.0" d="m158.39896 173.1273l370.9921 0l0 75.52756l-370.9921 0z" fill-rule="evenodd"/><path fill="#b33412" d="m240.3805 135.54732q17.84375 0.515625 29.296875 0.515625q11.453125 0 29.421875 -0.515625q17.96875 -0.53125 27.875 -0.53125q6.5 0 17.96875 -2.859375l4.9375 37.234375q-1.8125 1.828125 -6.25 1.828125q-2.34375 0 -2.59375 -1.296875q-3.65625 -14.59375 -9.0 -18.890625q-5.328125 -4.296875 -20.171875 -4.296875q-27.609375 0 -28.640625 3.90625q-2.34375 8.34375 -2.34375 26.046875l0 93.999985q0 15.109375 2.34375 24.21875q0.515625 1.828125 7.28125 3.53125q6.78125 1.6875 9.375 1.6875q1.046875 0 1.046875 3.90625q0 2.078125 -0.515625 3.640625q-26.046875 -1.296875 -30.21875 -1.296875q-1.296875 0 -31.234375 1.296875q-1.046875 -1.046875 -1.046875 -3.90625q0 -3.640625 1.046875 -3.640625q3.375 0 10.015625 -1.5625q6.640625 -1.5625 7.421875 -3.65625q1.828125 -7.03125 1.828125 -23.171875l0 -94.26561q0 -22.65625 -2.34375 -26.828125q-2.09375 -3.90625 -28.125 -3.90625q-14.84375 0 -20.1875 4.296875q-5.328125 4.296875 -8.984375 18.890625q-0.25 1.296875 -2.59375 1.296875q-4.4375 0 -6.25 -1.828125l4.9375 -37.234375q11.46875 2.859375 17.96875 2.859375q9.90625 0 27.734375 0.53125zm155.85257 0.515625q11.71875 0 40.625 -1.03125q28.90625 -1.046875 43.484375 -1.046875q1.046875 7.546875 4.03125 19.921875q3.0 12.359375 3.53125 15.484375q-1.3125 1.3125 -4.703125 1.3125q-3.375 0 -3.640625 -1.828125q-3.90625 -14.328125 -10.9375 -18.359375q-7.03125 -4.03125 -19.265625 -4.03125l-17.453125 0q-22.390625 0 -22.90625 3.375q-1.296875 6.25 -1.296875 21.875l0 41.671875q0 1.5625 11.1875 1.5625l13.796875 0q7.296875 0 10.546875 0q3.265625 0 6.90625 -1.03125q3.640625 -1.046875 4.6875 -1.3125q1.046875 -0.265625 2.734375 -3.390625q1.6875 -3.125 1.953125 -4.546875q0.265625 -1.4375 1.828125 -7.421875q0.25 -1.828125 3.90625 -1.828125q3.125 0 4.421875 1.296875l0 49.21875q-1.046875 1.046875 -4.171875 1.046875q-3.375 0 -4.15625 -2.09375q-1.828125 -7.015625 -3.140625 -10.53125q-1.296875 -3.515625 -1.953125 -4.171875q-0.640625 -0.65625 -2.203125 -1.6875q-3.390625 -2.09375 -27.609375 -2.09375q-18.734375 0 -18.734375 2.34375l0 40.35936q0 16.9375 2.34375 23.703125q0.78125 2.609375 17.703125 2.609375l12.5 0q24.21875 0 32.8125 -4.4375q3.90625 -2.078125 8.71875 -9.234375q4.8125 -7.171875 7.6875 -17.0625q0.515625 -1.5625 3.640625 -1.5625q4.953125 0 6.515625 1.5625q-1.3125 3.390625 -4.046875 10.8125q-2.734375 7.421875 -4.296875 11.984375q-1.5625 4.546875 -3.390625 10.546875q-1.8125 5.984375 -2.328125 9.890625q-13.28125 0 -41.9375 -0.53125q-28.640625 -0.515625 -46.859375 -0.515625l-31.515625 0.78125q-0.78125 -0.78125 -0.78125 -4.15625q0 -3.390625 0.78125 -3.390625q3.390625 0 10.03125 -1.828125q6.640625 -1.828125 7.9375 -4.171875q1.828125 -3.125 1.828125 -24.46875l0 -98.437485q0 -15.359375 -1.828125 -22.390625q-0.78125 -2.09375 -7.6875 -3.90625q-6.890625 -1.828125 -10.28125 -1.828125q-1.046875 0 -1.046875 -3.125q0 -3.390625 1.046875 -4.421875q13.546875 0.515625 30.984375 0.515625z" fill-rule="nonzero"/></g></svg>